<?xml version="1.0" ?><svg enable-background="new 0 0 52 52" id="Layer_1" version="1.1" viewBox="0 0 52 52" xml:space="preserve" xmlns="http://www.w3.org/2000/svg" xmlns:xlink="http://www.w3.org/1999/xlink"><path d="M27.0031128,23.9493713v-4.0628052c0-2.1640625-0.8427734-4.1982422-2.3725586-5.7280273  c-0.5205078-0.5205078-0.7841797-1.2397461-0.7236328-1.9731445s0.4389648-1.3994141,1.0375977-1.8271484  c1.0634766-0.7597656,1.6376953-1.9907227,1.5351563-3.293457c-0.1020508-1.3032227-0.8608398-2.4296875-2.0297852-3.0141602  l-0.8945313,1.7890625c0.5361328,0.2675781,0.8837891,0.7841797,0.9306641,1.3813477s-0.2163086,1.1611328-0.7041016,1.5097656  c-1.078125,0.7700195-1.7592773,1.9692383-1.8681641,3.2900391c-0.109375,1.3203125,0.3657227,2.6152344,1.3027344,3.5517578  c1.1518555,1.1523438,1.7866211,2.684082,1.7866211,4.3139648v4.0628052H2v24h48v-24H27.0031128z M42.0026245,27.9451599h3v2h-3  V27.9451599z M40.0026245,31.9451599h3v2h-3V31.9451599z M36.0026245,27.9451599h3v2h-3V27.9451599z M30.0026245,27.9451599h3v2h-3  V27.9451599z M36.0026245,31.9451599v2h-3v-2H36.0026245z M33.0026245,35.9451599v2h-3v-2H33.0026245z M30.0026245,33.9451599h-3v-2  h3V33.9451599z M24.0026245,27.9451599h3v2h-3V27.9451599z M18.0026245,27.9451599h3v2h-3V27.9451599z M24.0026245,31.9451599v2h-3  v-2H24.0026245z M12.0026245,27.9451599h3v2h-3V27.9451599z M18.0026245,31.9451599v2h-3v-2H18.0026245z M6.0026245,27.9451599h3v2  h-3V27.9451599z M12.0026245,31.9451599v2h-3v-2H12.0026245z M6.0026245,35.9451599h3v2h-3V35.9451599z M11.0026245,42.9451599h-3  v-2h3V42.9451599z M12.0026245,35.9451599h3v2h-3V35.9451599z M17.0026245,42.9451599h-3v-2h3V42.9451599z M18.0026245,35.9451599h3  v2h-3V35.9451599z M23.0026245,42.9451599h-3v-2h3V42.9451599z M24.0026245,35.9451599h3v2h-3V35.9451599z M36.0026245,42.9451599  h-10v-2h10V42.9451599z M36.0026245,35.9451599h3v2h-3V35.9451599z M42.0026245,42.9451599h-3v-2h3V42.9451599z   M42.0026245,35.9451599h3v2h-3V35.9451599z M46.0026245,42.9451599h-2v-2h2V42.9451599z"/></svg>