<svg height="467pt" viewBox="1 -27 467.99962 467" width="467pt" xmlns="http://www.w3.org/2000/svg"><path d="m412 149.058594v-142.558594c0-3.3125-2.6875-6-6-6h-72c-3.3125 0-6 2.6875-6 6v22.101562h-244v-22.101562c0-3.3125-2.6875-6-6-6h-72c-3.3125 0-6 2.6875-6 6v400c0 3.3125 2.6875 6 6 6h72c3.3125 0 6-2.6875 6-6v-22.101562h244v22.101562c0 3.3125 2.6875 6 6 6h72c3.3125 0 6-2.6875 6-6v-70.558594c34.476562-18.429687 56-54.347656 56-93.441406s-21.523438-75.011719-56-93.441406zm-50-12.558594c-7.394531-.003906-14.765625.769531-22 2.300781v-46.300781h60v51.046875c-12.125-4.667969-25.007812-7.058594-38-7.046875zm38-124v68h-60v-68zm-72 28.101562v101.5c-28.382812 9.6875-51.371094 30.886719-63.316406 58.398438h-180.683594v-159.898438zm-256 119.898438h-60v-68h60zm0 12v68h-60v-68zm0 80v68h-60v-68zm0-240v68h-60v-68zm-60 388v-68h60v68zm72-28.101562v-159.898438h176.328125c-16.097656 54.585938 13.773437 112.144531 67.671875 130.40625v29.5zm316 28.101562h-60v-54.300781c20.039062 4.246093 40.878906 2.597656 60-4.746094zm-38-64c-51.914062 0-94-42.085938-94-94s42.085938-94 94-94 94 42.085938 94 94c-.058594 51.890625-42.109375 93.941406-94 94zm0 0"/><path d="m405.117188 237.5-59.597657-39.601562c-1.84375-1.222657-4.207031-1.332032-6.15625-.289063-1.949219 1.046875-3.164062 3.078125-3.164062 5.289063v79.203124c0 2.210938 1.214843 4.242188 3.164062 5.289063 1.949219 1.042969 4.3125.933594 6.15625-.289063l59.597657-39.601562c1.675781-1.113281 2.679687-2.988281 2.679687-4.996094 0-2.011718-1.003906-3.886718-2.679687-5zm-56.917969 33.398438v-56.804688l42.757812 28.40625zm0 0"/></svg>