<?xml version="1.0" ?><!DOCTYPE svg  PUBLIC '-//W3C//DTD SVG 1.1//EN'  'http://www.w3.org/Graphics/SVG/1.1/DTD/svg11.dtd'><svg height="512px" style="enable-background:new 0 0 512 512;" version="1.1" viewBox="0 0 512 512" width="512px" xml:space="preserve" xmlns="http://www.w3.org/2000/svg" xmlns:xlink="http://www.w3.org/1999/xlink"><g id="_x32_52_x2C__insurance_x2C__health_x2C__family_x2C__life_x2C__hand"><g><path d="M129.535,142.826c-1.788-2.858-3.157-6.027-4.034-9.365    c-0.24,0.336-0.432,0.696-0.6,1.057c-0.3,0.721-0.469,1.537-0.469,2.401c0,1.657,0.662,3.146,1.718,4.226    C127.038,142.057,128.214,142.657,129.535,142.826 M192.418,133.438c-0.888,3.361-2.257,6.507-4.045,9.389    c1.332-0.146,2.509-0.77,3.397-1.682c1.056-1.08,1.716-2.568,1.716-4.226c0-0.864-0.179-1.681-0.468-2.401    C192.852,134.133,192.659,133.773,192.418,133.438z M192.659,116.701c0.588,2.546,0.9,5.187,0.9,7.899    c0,0.89-0.035,1.778-0.095,2.642c0.672-0.432,1.26-1.032,1.704-1.729c0.612-0.937,0.972-2.088,0.972-3.313    c0-1.537-0.528-2.905-1.428-3.962C194.148,117.59,193.452,117.062,192.659,116.701z M173.858,100.35    c-0.503,1.082-1.044,2.09-1.644,3.074c-0.397,0.672-0.829,1.32-1.272,1.945l-0.012,0.023l-0.024,0.024l-0.144,0.216l-0.024,0.023    l-0.011,0.025l-0.037,0.047l-0.035,0.049l-0.037,0.048l-0.047,0.048l-0.024,0.047l0,0l-0.047,0.072l-0.024,0.049l-0.047,0.048    l-0.025,0.048l-0.049,0.048l0,0l-0.035,0.048l-0.072,0.098l-0.037,0.047l-0.047,0.049l-0.012,0.023l-0.023,0.048l-0.037,0.048    l-0.037,0.049l-0.035,0.047l-0.047,0.049l-0.024,0.023l-0.012,0.024c2.197,1.872,4.694,3.433,7.384,4.586    c2.436,1.032,5.054,1.729,7.791,2.041l-0.037-0.097l-0.023-0.047l-0.037-0.072c-1.429-3.266-3.445-6.195-5.931-8.668    c-0.395-0.385-0.804-0.793-1.235-1.178l-0.024-0.023C176.583,102.199,175.251,101.215,173.858,100.35z M133.208,112.476    c1.033,0.36,2.09,0.673,3.171,0.912c1.944,0.433,4.021,0.673,6.182,0.673c6.135,0,11.801-1.945,16.423-5.211    c1.597-1.128,3.062-2.4,4.383-3.816l0.023-0.049l0.049-0.049l0.107-0.119l0.06-0.048l0,0l0.062-0.071l0.06-0.049l0.047-0.072l0,0    l0.072-0.072l0.049-0.071l0.023-0.024l0.037-0.023l0.06-0.072l0.047-0.072h0.012l0.062-0.072l0.047-0.048l0.035-0.048l0.024-0.023    l0.06-0.072l0.049-0.072h0.023l0.037-0.049l0.06-0.071l0.047-0.071l0,0l0.061-0.072l0.06-0.073l0.024-0.023l0.023-0.024    l0.06-0.071l0.049-0.073h0.013l0.047-0.072l0.047-0.071l0.049-0.048v-0.023l0.072-0.072l0.047-0.049l0.012-0.023l0.037-0.049    l0.06-0.071l0.047-0.072l0,0l0.06-0.071l0.049-0.072l0.023-0.049l0.024-0.023l0.047-0.072l0.062-0.071h0.011l0.037-0.073    l0.06-0.072l0.037-0.047l0.012-0.024l0.047-0.071l0.047-0.072l0.024-0.023l0.037-0.049l0.047-0.072l0.047-0.072l0,0l0.049-0.071    l0.047-0.072c0.337-0.456,0.637-0.96,0.96-1.465l0.181-0.313l0,0c0.432-0.72,0.816-1.487,1.176-2.233    c-2.569-0.887-5.294-1.439-8.126-1.56h-0.013h-0.288h-0.024l-0.504-0.024h-0.096h-0.3l-0.733,0.024h-0.119    c-0.647,0-1.297,0.048-1.944,0.12h-0.121l-0.36,0.047h-0.072l-0.553,0.072l-0.072,0.025l-0.191,0.023    c-4.515,0.648-8.693,2.377-12.259,4.898l-0.06,0.047l-0.263,0.192l-0.049,0.024l-0.191,0.145l-0.047,0.023l-0.121,0.12    l-0.144,0.097l-0.047,0.047l-0.181,0.121l-0.048,0.047l-0.133,0.096l-0.131,0.121l-0.047,0.024l-0.181,0.144l-0.047,0.047    l-0.121,0.098l-0.132,0.119l-0.047,0.024l-0.181,0.169l-0.168,0.143l-0.119,0.096l-0.048,0.049l-0.168,0.168l-0.037,0.024    l-0.132,0.12l-0.119,0.096l-0.049,0.072l-0.169,0.145l-0.167,0.168l-0.121,0.096l-0.047,0.047l-0.168,0.169l-0.024,0.024    l-0.12,0.145l-0.119,0.096l-0.049,0.072l-0.312,0.312l-0.107,0.12l-0.06,0.047l-0.146,0.169l-0.023,0.024l-0.133,0.145    l-0.095,0.119l-0.06,0.072l-0.146,0.168h-0.023l-0.133,0.168l-0.083,0.096l-0.062,0.072l-0.144,0.192h-0.012l-0.144,0.169    l-0.072,0.096l-0.072,0.071l-0.132,0.192h-0.012l-0.131,0.168l-0.084,0.121l-0.047,0.071l-0.144,0.192h-0.013l-0.133,0.168    l-0.072,0.119l-0.047,0.072l-0.144,0.192l0,0l-0.131,0.192l-0.072,0.096l-0.061,0.072l-0.12,0.191l-0.012,0.024l-0.119,0.168    l-0.072,0.097l-0.062,0.096l-0.119,0.191l0,0l-0.119,0.192l-0.072,0.097l-0.049,0.096l-0.12,0.216l0,0l-0.121,0.192l-0.06,0.096    l-0.06,0.096l-0.119,0.192l0,0l-0.109,0.217l-0.06,0.096l-0.156,0.288h-0.012v0.024l0,0l-0.313,0.601h-0.012l-0.156,0.312    l-0.047,0.096l-0.097,0.192v0.023L133.208,112.476z M165.767,111.252c-1.021,0.912-2.1,1.776-3.229,2.592    c-5.644,4.011-12.546,6.363-19.978,6.363c-2.532,0-5.054-0.288-7.503-0.84c-1.32-0.289-2.594-0.648-3.841-1.081    c-0.469,2.017-0.721,4.155-0.721,6.314c0,7.853,3.193,14.983,8.344,20.122c5.15,5.162,12.259,8.355,20.122,8.355    c7.863,0,14.97-3.193,20.132-8.332c5.138-5.162,8.319-12.27,8.319-20.146c0-1.681-0.144-3.313-0.419-4.922    c-4.274-0.167-8.344-1.128-12.078-2.713C171.565,115.525,168.48,113.604,165.767,111.252z M147.867,157.4v18.056l9.893,21.105    l11.151-22.114V157.76c-3.157,0.937-6.494,1.465-9.951,1.465C155.083,159.225,151.349,158.576,147.867,157.4z M142.37,177.568    c-0.084-0.144-0.168-0.313-0.229-0.504l-5.067-10.805c-6.026,2.353-11.26,4.25-15.726,5.883    c-20.001,7.299-23.604,8.619-23.891,22.378c-0.119,5.812,1.597,10.9,4.682,15.294l0.144,0.169    c2.737,3.817,6.543,7.132,11.093,9.916v-22.931h5.907v26.076c11.166,5.114,25.26,7.707,39.366,7.66    c13.938-0.048,27.841-2.642,38.848-7.9v-25.836h5.896v22.595c4.826-3.073,8.788-6.771,11.548-11.117    c2.341-3.674,3.818-7.876,4.203-12.558v-0.048l0.012-0.048l0.013-0.047v-0.025v-0.023v-0.049v-0.048v-0.048l0.01-0.048v-0.048    v-0.023l0.012-0.025v-0.047v-0.049c0.072-1.057,0.072-2.112,0.025-3.193v-0.049l0,0v-0.047v-0.024v-0.048v-0.048v-0.048v-0.049    l-0.012-0.047l0,0v-0.025v-0.047l-0.013-0.049v-0.048v-0.048v-0.048v-0.048l0,0v-0.049l-0.012-0.048v-0.023v-0.048l-0.01-0.048    v-0.048v-0.049l0,0v-0.049v-0.047l-0.013-0.049l-0.012-0.048v-0.048v-0.047v-0.049l-0.024-0.145v-0.168l-0.023-0.168l-0.012-0.145    l-0.012-0.168l-0.024-0.143l0,0c-1.032-9.461-5.919-11.262-23.579-17.696c-4.491-1.657-9.76-3.578-15.823-5.931l-5.066,10.035    c-0.049,0.121-0.121,0.24-0.181,0.361l-14.106,27.973c-0.288,0.551-0.769,1.032-1.381,1.344c-1.476,0.673-3.229,0.049-3.901-1.44    l-3.434-7.299L142.37,177.568z M317.227,98.789c1.297,0.48,2.629,0.865,3.985,1.177c2.246,0.505,4.611,0.769,7.071,0.769    c6.903,0,13.303-2.161,18.537-5.811l0.18-0.145c1.824-1.271,3.493-2.736,5.018-4.369l0.013-0.024l0.048-0.048l0.108-0.119    l0.024-0.025l0.035-0.023c2.27-2.497,4.166-5.33,5.571-8.428c-2.643-0.96-5.439-1.585-8.344-1.85h-0.121h-0.106h-0.013    l-0.097-0.023h-0.119h-0.109h-0.084l-0.022-0.023h-0.121h-0.106h-0.109h-0.047l-0.072-0.024h-0.121h-0.107h-0.108l0,0h-0.12    l-0.108-0.023h-0.119h-0.084h-0.024h-0.119h-0.109h-0.119h-0.037h-0.072h-0.119h-0.121h-0.107h-0.324h-0.096h-0.241h-0.179h-0.133    l-0.289,0.023h-0.047h-0.313l-0.047,0.024h-0.289l-0.12,0.023h-0.19l-0.229,0.023h-0.097l-0.313,0.024h-0.013l-0.313,0.024    l-0.084,0.023l-0.228,0.023l-0.179,0.025h-0.145l-0.265,0.048h-0.06l-0.313,0.048h-0.037l-0.275,0.048h-0.119l-0.193,0.048    l-0.216,0.024l-0.097,0.024l-0.3,0.047h-0.013l-0.311,0.049l-0.071,0.023l-0.241,0.049l-0.168,0.023l-0.144,0.024l-0.241,0.071    h-0.059l-0.301,0.072h-0.037l-0.275,0.072l-0.121,0.023l-0.191,0.049l-0.19,0.048l-0.097,0.024l-0.288,0.096h-0.024l-0.287,0.072    l-0.072,0.023l-0.385,0.12l-0.144,0.024l-0.241,0.096h-0.059l-0.301,0.096l-0.024,0.025l-0.265,0.071l-0.119,0.048l-0.359,0.119    l-0.109,0.049c-0.588,0.192-1.165,0.408-1.717,0.648l-0.023,0.023l-1.082,0.48h-0.022c-3.446,1.609-6.556,3.818-9.209,6.459    C321.092,92.019,318.836,95.236,317.227,98.789z M354.419,96.652c-1.224,1.129-2.508,2.162-3.866,3.122l-0.179,0.12    c-6.269,4.393-13.891,6.986-22.091,6.986c-2.844,0-5.653-0.336-8.379-0.936c-1.597-0.361-3.158-0.816-4.684-1.369    c-0.588,2.449-0.9,5.018-0.9,7.635c0,8.957,3.627,17.072,9.497,22.931c5.859,5.883,13.976,9.509,22.931,9.509    s17.061-3.626,22.942-9.484c5.858-5.883,9.484-13.998,9.484-22.955c0-2.016-0.193-3.984-0.54-5.93    c-4.598-0.145-9.064-1.104-13.219-2.785C361.431,101.863,357.709,99.558,354.419,96.652z M363.352,84.359    c-1.284,2.785-2.893,5.402-4.777,7.803c2.737,2.378,5.834,4.299,9.16,5.643c2.893,1.177,5.941,1.922,9.063,2.234    c-1.609-3.986-3.997-7.588-6.963-10.59l-0.156-0.168C367.781,87.408,365.656,85.752,363.352,84.359z M350.253,182.035h-8.295    V192.6h8.295V182.035z M338.921,176.128h0.084h3.661l-13.361-12.845l-0.024-0.049l-0.024-0.023l-0.035-0.023l-2.847-2.738    l-0.804,15.679H338.921z M329.472,222.541l6.58-27.301v-13.205h-13.578c-1.622,0-2.954-1.32-2.954-2.953l1.082-20.793    l-39.583,15.534l-0.071,0.024l-3.338,1.32v21.488v0.074v26.027h18.055v-30.11c0-1.705,1.394-3.073,3.074-3.073    c1.704,0,3.073,1.368,3.073,3.073v29.894H329.472z M355.403,222.541l-4.633-24.059h-9.462l-5.785,24.059H355.403z     M357.912,151.806v-2.642c-3.541,1.057-7.287,1.633-11.164,1.633c-4.358,0-8.549-0.721-12.449-2.064v11.189l11.068,10.636    l12.545-11.236V151.806z M356.159,182.011v13.278l5.234,27.252h28.994v-29.894c0-1.705,1.381-3.073,3.072-3.073    c1.706,0,3.075,1.368,3.075,3.073v30.11h18.068v-47.59l-42.992-16.879l1.057,20.648c0.084,1.609-1.165,3.002-2.787,3.073H356.159z     M363.016,162.658c-0.109,0.119-0.217,0.217-0.338,0.313l-0.035,0.023h-0.012l-0.024,0.024l-14.657,13.109h5.257h0.085h13.35    L365.8,160.16L363.016,162.658z M256.66,132.357c-2.509-2.522-6.015-4.082-9.856-4.082c-3.866,0-7.347,1.56-9.869,4.082    c-2.532,2.52-4.094,6.025-4.094,9.868c0,3.866,1.572,7.347,4.094,9.868s6.003,4.081,9.869,4.081c3.841,0,7.323-1.56,9.856-4.081    c2.522-2.521,4.093-6.002,4.093-9.868C260.753,138.383,259.182,134.902,256.66,132.357z M250.609,164.146v-2.185    c-1.237,0.239-2.509,0.36-3.806,0.36c-1.537,0-3.025-0.168-4.441-0.48v2.617l3.804,3.674L250.609,164.146z M255.712,167.461    c-0.121,0.144-0.265,0.264-0.409,0.384l-7.168,6.41l-0.047,0.048l-0.035,0.025l-0.024,0.023l-0.037,0.023l-0.012,0.025    l-0.035,0.023l-0.024,0.023l-0.035,0.024l-0.049,0.023l-0.035,0.024l-0.037,0.023l-0.023,0.024l-0.024,0.024h-0.024l-0.035,0.023    l-0.037,0.023l-0.022,0.025l-0.037,0.023h-0.024l-0.035,0.023l-0.024,0.025h-0.035l-0.037,0.023l-0.047,0.024l-0.049,0.023h-0.023    l-0.037,0.024h-0.024l-0.035,0.023h-0.024l-0.047,0.024l-0.024,0.023h-0.035l-0.025,0.024h-0.037h-0.023l-0.049,0.023H246.9    l-0.049,0.023h-0.022h-0.049L246.767,175h-0.06l-0.06,0.023h-0.012h-0.047h-0.024l-0.047,0.024h-0.012h-0.06l0,0h-0.072l0,0    c-0.216,0.024-0.456,0.024-0.672,0h-0.012l-0.06-0.024h-0.013h-0.061l0,0l-0.06-0.023h-0.012h-0.047l-0.191-0.049l-0.024-0.023    l-0.121-0.024h-0.023l-0.024-0.023l-0.072-0.024l-0.024-0.023h-0.035l-0.037-0.024l-0.263-0.144l-0.049-0.025h-0.022l-0.037-0.023    l-0.012-0.023l-0.06-0.024l-0.047-0.048h-0.012l-0.047-0.024v-0.023l-0.049-0.024l-0.023-0.023l-0.049-0.023l0,0l-0.047-0.049l0,0    l-0.049-0.049l0,0l-0.06-0.048l0,0l-6.688-6.435l-0.022-0.023l-0.037-0.023l-0.023-0.049l-2.186-2.089l-19.917,7.827v0.36    c6.412,3.458,8.859,7.275,9.7,15.103l0.024,0.145v0.047l0.024,0.217l0.011,0.192l0.012,0.168l0.012,0.024l0.012,0.216l0.025,0.192    l0.01,0.215l0.013,0.049v0.049v0.047v0.049v0.048l0.012,0.071l0.012,0.049v0.023v0.023v0.049v0.049v0.047l0.012,0.048v0.048v0.049    l0.012,0.047v0.025v0.023v0.049v0.048v0.071l0.011,0.048v0.048v0.049l0.012,0.048l0,0v0.048v0.048v0.048v0.049v0.072v0.047v0.049    h0.012v0.048v0.048v0.048c0.012,0.576,0.037,1.129,0.037,1.681l46.557,0.023v-20.528v-0.071v-0.024v-0.024v-0.023v-0.025v-0.023    l0,0l0.011-0.023v-0.024v-0.024l0.012-0.023v-0.024l0,0v-0.12h0.013l0.024-0.168l0,0c0.06-0.288,0.156-0.527,0.275-0.791l0,0    c0.072-0.121,0.144-0.241,0.24-0.361l0.013-0.023h0.012l0.011-0.025l0.013-0.023l0,0l0.024-0.023l-14.551-5.715l-2.052,1.824    L255.712,167.461z M135.717,327.035c3.122-0.336,6.112,0.601,8.38,2.426c2.281,1.824,3.878,4.514,4.238,7.635    c0.337,3.121-0.6,6.123-2.413,8.404c-1.825,2.28-4.527,3.865-7.647,4.226c-3.134,0.36-6.099-0.601-8.393-2.425    c-2.281-1.801-3.876-4.514-4.238-7.635c-0.335-3.122,0.6-6.1,2.425-8.381C129.883,328.98,132.585,327.396,135.717,327.035z     M109.557,267.057c-8.426,3.986-22.232,10.541-24.395,14.742l-0.06,0.121c-1.632,3.433-0.131,8.739,1.56,14.742    c0.493,1.729,0.997,3.529,1.418,5.234c3.397,13.59,3.457,29.437,3.517,44.876c0.049,16.135,0.108,31.862,4.083,43.507    c0.504,1.489,0.828,2.065,1.079,2.065c0.984-0.024,2.881-1.128,5.355-2.593c4.489-2.617,13.601-6.844,23.963-11.621    c20.396-9.437,45.824-21.202,47.864-25.717c0.732-1.607,0.9-3.649,0.578-6.025l-0.012-0.121c-0.396-2.736-1.406-5.906-2.918-9.436    c-3.672-8.596-12.894-25.402-22.306-40.602c-7.695-12.438-15.498-23.724-20.348-28.429l-0.049-0.024v-0.023    c-3.492-3.338-6.338-4.491-8.716-4.563c-2.351-0.072-4.538,0.912-6.422,1.848L109.557,267.057z M135.61,266.361    c5.125,5.881,11.957,15.966,18.679,26.795c8.693,14.047,17.252,29.486,21.562,38.777c37.71-14.07,57.026-7.875,77.483-1.297    c13.445,4.322,27.419,8.837,47.841,7.3c16.076-1.177,52.787-18.44,82.921-37.624c25.02-15.944,45.32-32.871,44.636-42.188    l-0.097-0.936c-0.647-4.66-3.576-7.396-7.382-8.885c-4.287-1.682-9.7-1.945-14.563-1.584c-1.25,0.095-2.45,0.215-3.591,0.384    c-11.2,1.536-26.11,6.314-40.386,12.437c-13.818,5.932-27,13.111-35.572,19.857c-2.665,5.931-8.967,9.053-17.107,10.324    c-19.557,3.074-50.435-5.234-62.332-8.451l-2.725-0.721c-1.584-0.432-2.509-2.041-2.088-3.625    c0.407-1.561,2.029-2.498,3.601-2.066l2.737,0.721c11.572,3.122,41.61,11.213,59.907,8.332    c8.763-1.368,14.622-5.522,13.278-14.598l-0.134-0.745c-2.726-13.733-25.007-22.978-50.049-28.309    c-25.74-5.499-54.132-6.698-68.047-4.515l-1.729,0.313c-9.953,1.969-22.834,7.348-35.463,13.494l-0.216,0.145    C155.311,255.292,144.205,261.438,135.61,266.361z M140.436,334.07c-1.104-0.888-2.544-1.344-4.069-1.176    c-1.512,0.168-2.821,0.937-3.687,2.04c-0.888,1.104-1.344,2.57-1.176,4.083c0.168,1.512,0.937,2.809,2.041,3.674    c1.104,0.887,2.557,1.344,4.082,1.176c1.512-0.168,2.809-0.938,3.687-2.041c0.875-1.104,1.332-2.545,1.164-4.082    C142.308,336.256,141.541,334.935,140.436,334.07z M159.789,90.025h0.06h0.06h0.121h0.119h0.121h0.023h0.097l0.119,0.024h0.121    h0.107h0.012h0.121l0.107,0.023h0.121h0.083h0.037l0.119,0.024h0.121h0.107h0.049l0.072,0.023h0.12h0.121l0.119,0.025h0.012    l0.228,0.023h0.12l0.228,0.023l0.109,0.025h0.119l0.24,0.047h0.121l0.12,0.024c7.779,0.984,14.803,4.586,20.072,9.845    c2.881,2.881,5.259,6.267,6.988,10.012c0.168-0.288,0.312-0.576,0.444-0.889c0.288-0.695,0.456-1.488,0.456-2.354    c0-1.416-0.468-2.688-1.237-3.697c-0.767-1.031-1.885-1.775-3.145-2.111l-0.528-0.193c-1.465-0.696-2.101-2.449-1.416-3.914    c0.167-0.336,0.3-0.72,0.407-1.128l0.024-0.12c0.097-0.433,0.144-0.889,0.144-1.369c0-1.656-0.66-3.168-1.706-4.225    c-1.044-1.058-2.497-1.729-4.082-1.729c-0.623,0-1.2,0.097-1.716,0.24c-0.541,0.167-1.044,0.432-1.525,0.769l-0.047,0.023    c-1.225,0.865-2.941,0.672-3.938-0.504c-0.481-0.576-1.093-1.057-1.778-1.369c-0.647-0.311-1.369-0.479-2.16-0.479    c-0.361,0-0.746,0.048-1.081,0.12l-1.321,0.456c-1.535,0.528-3.216-0.288-3.745-1.825c-0.361-1.032-0.961-1.993-1.706-2.737    c-0.528-0.505-1.128-0.937-1.788-1.272c-0.662,0.336-1.262,0.768-1.777,1.272c-0.756,0.744-1.356,1.681-1.716,2.737l-0.109,0.288    c-0.684,1.466-2.437,2.114-3.901,1.417l-1.056-0.336c-0.337-0.072-0.709-0.12-1.081-0.12c-0.721,0-1.393,0.144-1.993,0.407    l-0.168,0.072c-0.672,0.313-1.272,0.77-1.751,1.346l-0.024,0.023c-0.984,1.152-2.69,1.393-3.938,0.504    c-0.493-0.336-1.021-0.6-1.562-0.792c-0.516-0.144-1.104-0.24-1.729-0.24c-1.584,0-3.025,0.648-4.069,1.729    c-1.057,1.057-1.716,2.568-1.716,4.225c0,0.48,0.06,0.937,0.144,1.369c0.095,0.385,0.216,0.744,0.359,1.105l0.263,0.672    c0.409,1.584-0.551,3.193-2.125,3.578c-1.26,0.336-2.388,1.08-3.157,2.111c-0.769,1.009-1.237,2.281-1.237,3.697    c0,0.865,0.168,1.658,0.456,2.354l0.456,0.865c1.381-2.978,3.182-5.738,5.319-8.188l0.084-0.119l0.132-0.146l0,0l0.218-0.238    l0.022-0.025l0.528-0.575l0.121-0.146l0,0l0.132-0.119l0.107-0.096l0.024-0.049l0.144-0.144l0.06-0.048l0.062-0.072l0.072-0.072    l0.107-0.096l0.181-0.191l0.047-0.049l0.241-0.216l0.012-0.024l0.228-0.216l0.072-0.048l0.181-0.168l0.131-0.121l0.12-0.095    l0.193-0.192l0.047-0.049l0.252-0.215h0.013l0.24-0.217l0.072-0.048l0.179-0.169l0.131-0.095l0.121-0.097l0.204-0.168l0.06-0.048    l0.265-0.217l0,0l0.263-0.191l0.062-0.048l0.204-0.169l0.131-0.095l0.132-0.098l0.193-0.144l0.072-0.048l0.276-0.192    c2.678-1.897,5.655-3.433,8.812-4.513l0.109-0.025l0.204-0.072l0.313-0.096l0.275-0.096h0.037l0.313-0.12h0.06l0.263-0.072    l0.144-0.048l0.168-0.048l0.253-0.071l0.06-0.025l0.312-0.072l0.035-0.023l0.302-0.072l0.12-0.023l0.191-0.048l0.218-0.048    l0.107-0.023l0.313-0.073h0.012l0.325-0.072l0.083-0.023l0.24-0.048l0.181-0.024l0.144-0.024l0.275-0.047l0.049-0.025l0.335-0.047    h0.049l0.275-0.049l0.156-0.023l0.168-0.024l0.251-0.048h0.084l0.337-0.048h0.013l0.323-0.048l0.109-0.023l0.228-0.025h0.216    l0.121-0.023l0.311-0.023h0.024l0.337-0.025l0.072-0.023h0.263l0.168-0.024l0.853-0.048h0.035l1.333-0.023L159.789,90.025z     M29.074,402.069c-1.693,0-3.072-1.369-3.072-3.073c0-1.681,1.379-3.074,3.072-3.074h333.137c1.692,0,3.073,1.394,3.073,3.074    c0,1.704-1.381,3.073-3.073,3.073H29.074z M143.917,417.844c-1.632,0-2.953-1.345-2.953-2.953c0-1.633,1.321-2.953,2.953-2.953    h236.339c1.632,0,2.953,1.32,2.953,2.953c0,1.608-1.321,2.953-2.953,2.953H143.917z M282.304,432.202    c-1.622,0-2.941-1.32-2.941-2.953c0-1.608,1.319-2.953,2.941-2.953h163.548c1.634,0,2.953,1.345,2.953,2.953    c0,1.633-1.319,2.953-2.953,2.953H282.304z M462.589,432.202c-1.634,0-2.955-1.32-2.955-2.953c0-1.608,1.321-2.953,2.955-2.953    h20.456c1.62,0,2.954,1.345,2.954,2.953c0,1.633-1.334,2.953-2.954,2.953H462.589z M134.601,431.771    c-1.632,0-2.953-1.321-2.953-2.953c0-1.633,1.321-2.954,2.953-2.954h77.495c1.62,0,2.953,1.321,2.953,2.954    c0,1.632-1.333,2.953-2.953,2.953H134.601z M124.457,127.242c-0.06-0.863-0.109-1.752-0.109-2.642    c0-2.713,0.313-5.354,0.913-7.899c-0.792,0.36-1.488,0.889-2.053,1.537c-0.9,1.057-1.44,2.425-1.44,3.962    c0,1.177,0.324,2.257,0.877,3.146l0.12,0.168C123.197,126.21,123.785,126.786,124.457,127.242z" style="fill-rule:evenodd;clip-rule:evenodd;"/></g></g><g id="Layer_1"/></svg>