<?xml version="1.0" ?><!DOCTYPE svg  PUBLIC '-//W3C//DTD SVG 1.1//EN'  'http://www.w3.org/Graphics/SVG/1.1/DTD/svg11.dtd'><svg height="512px" style="enable-background:new 0 0 512 512;" version="1.1" viewBox="0 0 512 512" width="512px" xml:space="preserve" xmlns="http://www.w3.org/2000/svg" xmlns:xlink="http://www.w3.org/1999/xlink"><g id="C_-_179_x2C__Tools_x2C__essential_tools_x2C__stationary_x2C__items_x2C__pen"><g><rect height="39.955" width="76.767" x="128.426" y="238.209"/><rect height="38.295" width="76.767" x="128.426" y="46.169"/><rect height="36.339" width="76.767" x="128.426" y="336.866"/><rect height="39.962" width="76.767" x="128.426" y="287.534"/><path d="M241.502,465.832h76.766v-38.317h-38.383c-2.588,0-4.686-2.098-4.686-4.686c0-2.589,2.098-4.686,4.686-4.686h38.383    v-38.295h-38.383c-2.588,0-4.686-2.098-4.686-4.686s2.098-4.686,4.686-4.686h38.383v-38.296h-38.383    c-2.588,0-4.686-2.097-4.686-4.686c0-2.588,2.098-4.685,4.686-4.685h38.383v-38.296h-38.383c-2.588,0-4.686-2.098-4.686-4.686    s2.098-4.686,4.686-4.686h38.383V236.85h-38.383c-2.588,0-4.686-2.098-4.686-4.686s2.098-4.686,4.686-4.686h38.383v-38.303    h-38.383c-2.588,0-4.686-2.098-4.686-4.686s2.098-4.686,4.686-4.686h38.383v-38.296h-38.383c-2.588,0-4.686-2.098-4.686-4.686    s2.098-4.686,4.686-4.686h38.383V46.169h-76.766V465.832z M270.918,70.114h17.936v19.036h-17.936V70.114z"/><polygon points="166.811,456.958 202.439,382.576 131.181,382.576   "/><rect height="279.37" width="33.697" x="397.746" y="93.835"/><path d="M412.18,46.169h-38.244c-10.619,0-19.257,8.588-19.257,19.144v19.151h76.765V65.313    C431.443,54.757,422.803,46.169,412.18,46.169z"/><rect height="279.37" width="33.697" x="354.679" y="93.835"/><polygon points="393.062,456.958 428.689,382.576 357.433,382.576   "/><path d="M128.426,93.835H85.242c-2.587,0-4.686,2.097-4.686,4.686v95.348c0,2.588,2.098,4.685,4.686,4.685    s4.686-2.097,4.686-4.685v-90.663h38.499v125.632h76.767V93.835h-75.049H128.426z"/></g></g><g id="Layer_1"/></svg>